<svg height="512" width="512" xmlns="http://www.w3.org/2000/svg"><path d="M256 0L101.053 256 256 512c141.16 0 256-114.84 256-256S397.16 0 256 0z" fill="#85d9ff"/><path d="M0 256c0 141.16 114.84 256 256 256V0C114.84 0 0 114.84 0 256z" fill="#bfebff"/><path d="M256 105.25L164.757 256 256 406.75c83.124 0 150.75-67.626 150.75-150.75S339.124 105.25 256 105.25z" fill="#bfebff"/><path d="M105.25 256c0 83.124 67.626 150.75 150.75 150.75v-301.5c-83.124 0-150.75 67.626-150.75 150.75z" fill="#fff"/><path d="M256 60.25l-27.237 45 27.237 45c24.813 0 45-20.187 45-45s-20.187-45-45-45z" fill="#0d86d9"/><path d="M211 105.25c0 24.813 20.187 45 45 45v-90c-24.813 0-45 20.187-45 45z" fill="#0ca8ed"/><path d="M256 180l-46 76 46 76c41.907 0 76-34.093 76-76s-34.093-76-76-76z" fill="#ff4f75"/><path d="M180 256c0 41.907 34.093 76 76 76V180c-41.907 0-76 34.093-76 76z" fill="#ff776b"/></svg>