<svg width="39" height="28" viewBox="0 0 39 28" fill="none" xmlns="http://www.w3.org/2000/svg">
<g clip-path="url(#clip0_5042_16702)">
<mask id="mask0_5042_16702" style="mask-type:luminance" maskUnits="userSpaceOnUse" x="0" y="0" width="39" height="28">
<path d="M38.2494 0H0.916016V28H38.2494V0Z" fill="white"/>
</mask>
<g mask="url(#mask0_5042_16702)">
<path fill-rule="evenodd" clip-rule="evenodd" d="M35.741 2.18167H3.40685C2.74725 2.18167 2.11458 2.44329 1.64762 2.90915C1.18067 3.37501 0.91756 4.00707 0.916016 4.66667V23.3334C0.916016 23.9939 1.17844 24.6275 1.64556 25.0946C2.11269 25.5617 2.74624 25.8242 3.40685 25.8242H35.741C36.0696 25.8265 36.3954 25.7638 36.6996 25.6396C37.0038 25.5155 37.2804 25.3324 37.5136 25.1009C37.7468 24.8694 37.9318 24.5939 38.058 24.2906C38.1844 23.9873 38.2493 23.6619 38.2493 23.3334V4.66667C38.2478 4.3388 38.1817 4.01444 38.0548 3.71211C37.9279 3.40979 37.7428 3.13542 37.5099 2.90466C37.2769 2.67391 37.0009 2.4913 36.6973 2.36724C36.3939 2.24319 36.0689 2.18013 35.741 2.18167Z" fill="#227FBB"/>
<path fill-rule="evenodd" clip-rule="evenodd" d="M4.28185 10.6748L3.56435 8.9248L2.84685 10.6748H4.28185ZM20.1077 9.98066C19.9458 10.0566 19.7663 10.0869 19.5885 10.0682H18.311V9.09402H19.5827C19.7522 9.07897 19.9228 9.10706 20.0785 9.17566C20.1502 9.2097 20.2098 9.26482 20.2493 9.3336C20.289 9.40237 20.3067 9.48156 20.3002 9.56066C20.3054 9.64361 20.2881 9.72647 20.2501 9.80041C20.2122 9.87435 20.1548 9.93665 20.0843 9.98066H20.1077ZM29.2018 10.6748L28.4785 8.9248L27.7493 10.6748H29.2018ZM12.2502 12.5707H11.171V9.12902L9.66605 12.5707H8.72685L7.19851 9.12902V12.5707H5.06351L4.66101 11.5907H2.47351L2.08269 12.5707H0.916016L2.80601 8.16649H4.36935L6.16601 12.3373V8.16649H7.87518L9.25185 11.1473L10.5002 8.16649H12.2502V12.559V12.5707ZM16.5377 12.5707H13.0377V8.16649H16.5377V9.0823H14.0818V9.91652H16.4793V10.8148H14.0818V11.6665H16.5377V12.5765V12.5707ZM21.4785 9.3623C21.4841 9.60747 21.4175 9.84889 21.2867 10.0564C21.156 10.2638 20.9671 10.4282 20.7435 10.529C20.9459 10.6037 21.125 10.7304 21.2627 10.8965C21.4063 11.1388 21.4658 11.4219 21.4318 11.7015V12.5648H20.376V12.0165C20.4205 11.7204 20.3629 11.4179 20.2127 11.159C19.9917 11.0001 19.7178 10.9332 19.4485 10.9723H18.311V12.5707H17.2493V8.16649H19.6585C20.0934 8.1248 20.5317 8.19718 20.9302 8.37649C21.1026 8.47096 21.2444 8.61299 21.3385 8.78567C21.4326 8.9584 21.4751 9.15449 21.461 9.35066L21.4785 9.3623ZM23.1585 12.5707H22.091V8.16649H23.1585V12.559V12.5707ZM35.5835 12.5707H34.096L32.1068 9.2748V12.5707H29.9718L29.5635 11.5907H27.3818L26.9852 12.5707H25.7543C25.206 12.6055 24.6645 12.4327 24.2377 12.0865C24.0292 11.8623 23.8696 11.5971 23.7691 11.3079C23.6687 11.0187 23.6296 10.7116 23.6543 10.4065C23.6324 10.0962 23.6726 9.78457 23.7728 9.49005C23.873 9.19552 24.031 8.92401 24.2377 8.69149C24.4552 8.50115 24.7088 8.35657 24.9834 8.26637C25.258 8.17617 25.548 8.1422 25.836 8.16649H26.851V9.10566H25.8535C25.7083 9.08851 25.5611 9.10304 25.4222 9.14836C25.2831 9.19369 25.1556 9.26868 25.0485 9.36816C24.8274 9.65166 24.7194 10.0071 24.7452 10.3657C24.7132 10.732 24.8169 11.0974 25.0368 11.3923C25.1374 11.4763 25.2536 11.5396 25.3788 11.5786C25.5039 11.6177 25.6355 11.6317 25.766 11.6198H26.2385L27.7143 8.16649H29.2893L31.0393 12.3198V8.16649H32.6377L34.481 11.229V8.16649H35.5543V12.559L35.5835 12.5707ZM0.916016 13.4165H2.70685L3.11519 12.4423H4.01935L4.41601 13.4165H7.94518V12.6873L8.26601 13.4165H10.0977L10.4127 12.6582V13.4165H19.1627V11.8298H19.3318C19.4485 11.8298 19.4835 11.8298 19.4835 12.0457V13.4165H24.016V13.0432C24.5392 13.3029 25.1179 13.4311 25.7018 13.4165H27.6093L28.0177 12.4423H28.916L29.3418 13.4165H32.9993V12.5065L33.5827 13.4165H36.4993V7.30899H33.5827V8.03232L33.1743 7.30899H30.2052V8.03232L29.826 7.30899H25.7893C25.1856 7.28142 24.5844 7.40366 24.0393 7.66482V7.30899H21.2452V7.66482C20.9115 7.41014 20.4975 7.28385 20.0785 7.30899H9.87018L9.18768 8.8898L8.49935 7.30899H5.27935V8.03232L4.92351 7.30899H2.18769L0.916016 10.2198V13.4165ZM38.2493 16.6482H36.336C36.1891 16.633 36.0411 16.6614 35.9102 16.7298C35.8586 16.7636 35.8173 16.8107 35.7905 16.8662C35.7638 16.9217 35.7527 16.9835 35.7585 17.0448C35.7561 17.1165 35.777 17.1871 35.818 17.246C35.859 17.3048 35.9179 17.3489 35.986 17.3715C36.1179 17.4131 36.2562 17.4309 36.3943 17.424H36.9777C37.3975 17.3917 37.814 17.5187 38.1443 17.7798C38.1835 17.8109 38.217 17.8483 38.2435 17.8907L38.2493 16.6482ZM38.2493 19.5648C38.0783 19.7715 37.8589 19.9328 37.6107 20.0345C37.3624 20.1363 37.0929 20.1753 36.826 20.1482H34.796V19.1857H36.8143C36.9653 19.2057 37.1181 19.166 37.2402 19.0748C37.2804 19.0388 37.3126 18.9948 37.3348 18.9456C37.3568 18.8963 37.3684 18.8429 37.3685 18.789C37.3699 18.7339 37.3592 18.6792 37.337 18.6288C37.3148 18.5783 37.2817 18.5334 37.2402 18.4973C37.1306 18.4228 36.9989 18.3878 36.8668 18.3982C35.881 18.369 34.6502 18.4332 34.6502 17.039C34.6502 16.4032 35.0585 15.7323 36.161 15.7323H38.2493V14.8573H36.3068C35.8418 14.8331 35.3813 14.96 34.9943 15.219V14.8573H32.1185C31.6718 14.8343 31.2302 14.9616 30.8643 15.219V14.8573H25.7368V15.219C25.3065 14.9706 24.8161 14.8455 24.3193 14.8573H20.936V15.219C20.495 14.9396 19.9745 14.8125 19.4543 14.8573H15.6685L14.8052 15.7965L13.9885 14.8573H8.33019V20.9998H13.8835L14.776 20.049L15.616 20.9998H19.0402V19.5473H19.3785C19.8744 19.5798 20.3716 19.5062 20.8368 19.3315V20.9998H23.666V19.3898H23.806C23.9752 19.3898 23.9927 19.3898 23.9927 19.5707V20.9998H32.5677C33.0728 21.019 33.5717 20.8826 33.9968 20.609V20.9998H36.7152C37.2414 21.0122 37.7643 20.9127 38.2493 20.7082V19.5415V19.5648ZM34.061 17.8148C34.1748 17.9392 34.2615 18.0859 34.3158 18.2456C34.37 18.4052 34.3905 18.5744 34.376 18.7423C34.376 19.6873 33.7927 20.1307 32.7252 20.1307H30.666V19.1857H32.7018C32.8544 19.202 33.0077 19.1626 33.1335 19.0748C33.1719 19.0377 33.2025 18.9933 33.2235 18.9443C33.2445 18.8952 33.2556 18.8424 33.256 18.789C33.2563 18.7341 33.245 18.6797 33.2229 18.6295C33.2008 18.5792 33.1684 18.5342 33.1277 18.4973C33.0181 18.4228 32.8864 18.3878 32.7543 18.3982C31.7685 18.369 30.5435 18.4332 30.5435 17.039C30.5435 16.4032 30.9402 15.7323 32.0427 15.7323H34.166V16.6657H32.241C32.096 16.6496 31.9494 16.678 31.821 16.7473C31.7679 16.7798 31.725 16.8266 31.6971 16.8822C31.6693 16.938 31.6577 17.0003 31.6635 17.0623C31.6601 17.1342 31.6806 17.2053 31.7217 17.2643C31.7629 17.3234 31.8224 17.3672 31.891 17.389C32.0229 17.4306 32.1612 17.4483 32.2993 17.4415H32.8827C33.3021 17.4126 33.7174 17.5393 34.0493 17.7973L34.061 17.8148ZM24.5935 17.5407C24.4325 17.6192 24.2527 17.6515 24.0743 17.634H22.7968V16.6423H24.0918C24.2628 16.6258 24.4352 16.6518 24.5935 16.7182C24.6626 16.7579 24.7194 16.816 24.7574 16.886C24.7955 16.956 24.8135 17.0353 24.8093 17.1148C24.8133 17.1976 24.7956 17.28 24.7577 17.3537C24.7198 17.4274 24.6632 17.4899 24.5935 17.5348V17.5407ZM25.2235 18.089C25.4272 18.161 25.607 18.2883 25.7427 18.4565C25.8837 18.6955 25.9431 18.974 25.9118 19.2498V20.1248H24.8618V19.5765C24.9045 19.2779 24.8449 18.9736 24.6927 18.7132C24.4708 18.5513 24.1946 18.4823 23.9227 18.5207H22.7968V20.1248H21.741V15.7498H24.1677C24.5987 15.712 25.0323 15.7843 25.4277 15.9598C25.605 16.0473 25.7532 16.1841 25.8546 16.3538C25.956 16.5236 26.0063 16.719 25.9993 16.9165C26.0071 17.1636 25.94 17.4072 25.8067 17.6155C25.6735 17.8237 25.4804 17.9867 25.2527 18.0832L25.2235 18.089ZM26.5827 15.7498H30.0827V16.6598H27.5977V17.4415H29.9952V18.334H27.5977V19.209H30.0827V20.1248H26.5827V15.7498ZM19.4718 17.7623H18.1127V16.6423H19.4835C19.8627 16.6423 20.1252 16.794 20.1252 17.179C20.1252 17.564 19.8743 17.7623 19.4718 17.7623ZM17.0685 19.7282L15.4585 17.9373L17.0685 16.1873V19.6873V19.7282ZM12.9093 19.209H10.3252V18.334H12.6293V17.4415H10.3252V16.6423H12.956L14.1227 17.9198L12.9268 19.209H12.9093ZM21.251 17.179C21.251 18.3982 20.341 18.6548 19.4252 18.6548H18.1127V20.1248H16.0827L14.7818 18.6665L13.4402 20.119H9.28101V15.7498H13.5043L14.7935 17.1907L16.1293 15.7498H19.4835C20.3177 15.7498 21.2335 15.9832 21.2335 17.1965L21.251 17.179Z" fill="white"/>
</g>
</g>
<defs>
<clipPath id="clip0_5042_16702">
<rect width="37.625" height="28" fill="white" transform="translate(0.875)"/>
</clipPath>
</defs>
</svg>
