<svg width="59" height="24" viewBox="0 0 59 24" fill="none" xmlns="http://www.w3.org/2000/svg">
<g clip-path="url(#clip0_5037_16461)">
<path d="M8.54262 4.44959C9.62262 4.54079 10.7026 3.90239 11.3794 3.08879V3.08639C12.0442 2.256 12.4834 1.1328 12.3754 0C11.413 0.0455999 10.2346 0.638399 9.56022 1.4712C8.93622 2.18159 8.40582 3.35279 8.54262 4.44959ZM5.86905 19.3103C7.06425 19.2647 7.53464 18.5256 8.97462 18.5256C10.4242 18.5256 10.8466 19.3103 12.1066 19.2935C13.4122 19.2671 14.2306 18.108 15.0298 16.9176C15.937 15.5664 16.3162 14.2584 16.3354 14.1864C16.309 14.16 13.8154 13.1904 13.7866 10.2672C13.7602 7.8192 15.7594 6.65759 15.8458 6.58559C14.7202 4.88639 12.9658 4.70399 12.3538 4.65839L12.3586 4.66079C10.7914 4.56719 9.45222 5.56319 8.71302 5.56319C7.95704 5.56319 6.82425 4.70399 5.58105 4.73039C3.97305 4.75919 2.47786 5.68319 1.65946 7.15199C-0.0325432 10.1016 1.21786 14.46 2.85466 16.8624C3.65625 18.048 4.60905 19.3559 5.86905 19.3103ZM35.053 10.0488H37.5106C37.717 8.952 38.7154 8.2296 40.0858 8.2296C41.7514 8.2296 42.6873 9.0144 42.6873 10.4664V11.4528L39.2866 11.664C36.1282 11.856 34.417 13.1712 34.417 15.4536C34.4266 17.7552 36.1882 19.2888 38.7178 19.2911C40.429 19.2911 42.013 18.4152 42.7305 17.0184H42.7834V19.1568H45.3033V10.296C45.3033 7.7304 43.2777 6.06719 40.165 6.06719C37.2754 6.06719 35.137 7.7448 35.053 10.0488ZM42.6969 14.3352C42.6969 15.9984 41.3001 17.184 39.457 17.184C38.0074 17.184 37.081 16.4712 37.081 15.3936C37.081 14.268 37.9714 13.6224 39.673 13.5216L42.6969 13.3296V14.3352ZM21.3922 1.3512V19.1544H24.1186V13.0704H27.889C31.3354 13.0704 33.7474 10.668 33.7474 7.19759C33.7474 3.72719 31.3738 1.3512 27.9778 1.3512H21.3922ZM30.9778 7.20719C30.9778 9.4536 29.629 10.752 27.2506 10.752H24.1186V3.68159H27.2602C29.6266 3.68159 30.9778 4.95839 30.9778 7.20719Z" fill="black"/>
<path d="M52.4279 16.7522L49.2239 6.24023H46.3799L50.9879 19.2026L50.7359 19.9874C50.3207 21.3194 49.6463 21.8426 48.4415 21.8426C48.2255 21.8426 47.8127 21.8162 47.6399 21.797V23.9354C47.8031 23.9738 48.4799 24.0002 48.6863 24.0002L48.6839 23.9954C51.3383 23.9954 52.5887 22.9634 53.6807 19.8482L58.4591 6.24023H55.6871L52.4831 16.7522H52.4279Z" fill="black"/>
</g>
<defs>
<clipPath id="clip0_5037_16461">
<rect width="57.75" height="24" fill="white" transform="translate(0.818359)"/>
</clipPath>
</defs>
</svg>
