<svg width="47" height="28" viewBox="0 0 47 28" fill="none" xmlns="http://www.w3.org/2000/svg">
<g clip-path="url(#clip0_5042_16685)">
<mask id="mask0_5042_16685" style="mask-type:luminance" maskUnits="userSpaceOnUse" x="1" y="0" width="46" height="28">
<path d="M43.7361 0H3.43056C2.15723 0 1.125 1.03223 1.125 2.30555V25.6944C1.125 26.9678 2.15723 28 3.43056 28H43.7361C45.0094 28 46.0416 26.9678 46.0416 25.6944V2.30555C46.0416 1.03223 45.0094 0 43.7361 0Z" fill="white"/>
</mask>
<g mask="url(#mask0_5042_16685)">
<path d="M43.7361 0H3.43056C2.15723 0 1.125 1.03223 1.125 2.30555V25.6944C1.125 26.9678 2.15723 28 3.43056 28H43.7361C45.0094 28 46.0416 26.9678 46.0416 25.6944V2.30555C46.0416 1.03223 45.0094 0 43.7361 0Z" fill="white"/>
<path d="M45.5065 15.8687C45.5065 15.8687 33.7713 24.2492 12.2783 28.0001H45.5065V15.8687Z" fill="#F58025"/>
<path d="M5.39467 9.3291H3.60254V15.6637H5.38524C6.33314 15.6637 7.01763 15.4373 7.6185 14.9323C7.97203 14.6358 8.25699 14.2644 8.4533 13.8442C8.64963 13.4241 8.75253 12.9655 8.75475 12.5008C8.75475 10.6314 7.37467 9.3291 5.39467 9.3291ZM6.82091 14.0877C6.43729 14.4383 5.939 14.5913 5.15014 14.5913H4.82248V10.4025H5.15014C5.939 10.4025 6.41769 10.5453 6.82091 10.9147C7.03555 11.1157 7.20652 11.3597 7.32293 11.6311C7.43935 11.9027 7.49868 12.1957 7.49713 12.4916C7.49889 12.7904 7.43974 13.0864 7.32339 13.361C7.20704 13.6356 7.03599 13.883 6.82091 14.0877Z" fill="#231F20"/>
<path d="M10.5374 9.3291H9.31641V15.6637H10.5374V9.3291Z" fill="#231F20"/>
<path d="M13.5226 11.7602C12.7899 11.4858 12.5748 11.3049 12.5748 10.9627C12.5748 10.5637 12.9581 10.2605 13.4843 10.2605C13.6761 10.2647 13.8645 10.3131 14.0352 10.402C14.2057 10.4908 14.3541 10.6179 14.4688 10.7735L15.1076 9.92703C14.6015 9.47063 13.9463 9.22038 13.2684 9.22466C12.161 9.22466 11.3163 10.003 11.3163 11.0398C11.3163 11.9124 11.7096 12.3593 12.8562 12.7769C13.1481 12.8701 13.4307 12.9908 13.7002 13.1377C13.8123 13.2052 13.905 13.3012 13.9693 13.4162C14.0334 13.5312 14.0668 13.6611 14.0662 13.7931C14.0652 13.9158 14.0394 14.037 13.9906 14.1493C13.9418 14.2615 13.8708 14.3626 13.7821 14.4461C13.6935 14.5298 13.5888 14.5942 13.4747 14.6356C13.3605 14.6769 13.2393 14.6943 13.1183 14.6866C12.8393 14.6911 12.565 14.6137 12.3285 14.4638C12.092 14.3138 11.9036 14.0978 11.7858 13.8418L10.9971 14.6104C11.5596 15.446 12.2351 15.8163 13.1641 15.8163C14.4328 15.8163 15.3229 14.9627 15.3229 13.7363C15.3229 12.7298 14.9114 12.2743 13.5226 11.7602Z" fill="#231F20"/>
<path d="M15.7081 12.5011C15.7046 12.9394 15.788 13.374 15.9533 13.7791C16.1186 14.1842 16.3624 14.5516 16.6704 14.8598C16.9784 15.168 17.3443 15.4105 17.7464 15.5732C18.1486 15.7358 18.5788 15.8153 19.0119 15.8068C19.5437 15.8075 20.0682 15.681 20.5426 15.4376V13.9831C20.0544 14.4775 19.6222 14.6769 19.0686 14.6769C17.839 14.6769 16.9663 13.7747 16.9663 12.492C16.9571 12.2126 17.0029 11.9341 17.1012 11.6729C17.1995 11.4116 17.3481 11.1727 17.5385 10.9702C17.7289 10.7678 17.9572 10.6056 18.2102 10.4934C18.4631 10.3811 18.7356 10.3209 19.0119 10.3164C19.5942 10.3164 20.0349 10.5266 20.5426 11.0291V9.57532C20.0822 9.31973 19.5656 9.18595 19.0406 9.1863C18.6063 9.18078 18.1752 9.26234 17.7722 9.42631C17.3691 9.5902 17.0022 9.83327 16.6923 10.1414C16.3826 10.4495 16.1361 10.8167 15.9672 11.2217C15.7982 11.6267 15.7102 12.0615 15.7081 12.5011Z" fill="#231F20"/>
<path d="M30.2226 13.5845L28.5536 9.32959H27.2197L29.8761 15.8267H30.5331L33.2368 9.32959H31.9137L30.2226 13.5845Z" fill="#231F20"/>
<path d="M33.7891 15.664H37.2516V14.5918H35.0091V12.8819H37.1689V11.809H35.0091V10.4028H37.2516V9.32959H33.7891V15.664Z" fill="#231F20"/>
<path d="M42.086 11.1992C42.086 10.0134 41.2789 9.3291 39.8709 9.3291H38.0605V15.6637H39.28V13.119H39.4392L41.1292 15.6637H42.6306L40.6602 12.995C41.5797 12.8057 42.086 12.1692 42.086 11.1992ZM39.6367 12.2455H39.28V10.3269H39.656C40.4164 10.3269 40.8297 10.6493 40.8297 11.2658C40.8297 11.9027 40.4164 12.2455 39.6367 12.2455Z" fill="#231F20"/>
<path d="M27.5867 12.5006C27.5867 13.1668 27.3914 13.8179 27.0257 14.3718C26.66 14.9256 26.1402 15.3573 25.5322 15.6122C24.924 15.8671 24.2548 15.9338 23.6093 15.8038C22.9638 15.6738 22.3708 15.353 21.9054 14.882C21.44 14.411 21.1229 13.8109 20.9946 13.1575C20.8662 12.5042 20.9321 11.827 21.1839 11.2116C21.4358 10.5961 21.8624 10.0701 22.4096 9.70002C22.9569 9.3299 23.6003 9.13232 24.2586 9.13232C24.6957 9.13224 25.1285 9.2193 25.5323 9.38852C25.9361 9.55775 26.3031 9.8059 26.6122 10.1187C26.9212 10.4314 27.1663 10.8028 27.3335 11.2115C27.5007 11.6202 27.5867 12.0582 27.5867 12.5006Z" fill="#F58025"/>
<path d="M42.7375 9.45488C42.7375 9.34393 42.6619 9.2832 42.5292 9.2832H42.3525V9.83997H42.4839V9.62402L42.6379 9.83997H42.798L42.6171 9.61037C42.6521 9.60302 42.6834 9.58342 42.7054 9.55498C42.7275 9.52645 42.7389 9.49102 42.7375 9.45488ZM42.5061 9.53092H42.4839V9.38532H42.5075C42.5722 9.38532 42.6062 9.40903 42.6062 9.45698C42.6062 9.50615 42.5717 9.53092 42.5061 9.53092Z" fill="#231F20"/>
<path d="M42.5554 9.07524C42.4603 9.07393 42.367 9.10132 42.2872 9.15382C42.2075 9.2064 42.145 9.28174 42.1077 9.37038C42.0704 9.45893 42.06 9.55675 42.0778 9.65134C42.0956 9.74593 42.1408 9.83308 42.2076 9.90159C42.2745 9.9701 42.3599 10.017 42.4532 10.0363C42.5463 10.0555 42.6431 10.0462 42.7311 10.0097C42.8192 9.97308 42.8945 9.91087 42.9474 9.83089C43.0005 9.75092 43.0287 9.65677 43.0286 9.56052C43.0294 9.43268 42.98 9.30974 42.8913 9.21874C42.8025 9.12783 42.6817 9.07612 42.5554 9.07524ZM42.5535 9.95925C42.4751 9.96205 42.3976 9.94114 42.3309 9.89905C42.2643 9.85705 42.2117 9.7958 42.1797 9.72327C42.1477 9.65064 42.1379 9.57005 42.1515 9.49183C42.1651 9.41352 42.2015 9.34124 42.256 9.28402C42.3106 9.22688 42.3808 9.1875 42.4575 9.17097C42.5343 9.15452 42.6142 9.1616 42.687 9.19135C42.7598 9.22119 42.8221 9.27229 42.8661 9.33818C42.9099 9.40407 42.9334 9.48177 42.9333 9.56122C42.9348 9.66482 42.8957 9.76492 42.8245 9.83947C42.7534 9.9141 42.656 9.95715 42.5535 9.95925Z" fill="#231F20"/>
</g>
</g>
<defs>
<clipPath id="clip0_5042_16685">
<rect width="46.375" height="28" fill="white" transform="translate(0.5)"/>
</clipPath>
</defs>
</svg>
