<svg width="63" height="24" viewBox="0 0 63 24" fill="none" xmlns="http://www.w3.org/2000/svg">
<mask id="mask0_5037_16464" style="mask-type:luminance" maskUnits="userSpaceOnUse" x="1" y="0" width="61" height="24">
<path d="M61.4848 0H1.20898V24H61.4848V0Z" fill="white"/>
</mask>
<g mask="url(#mask0_5037_16464)">
<path d="M29.7881 11.6691V18.676H27.5674V1.37943H33.4571C34.8778 1.35184 36.2433 1.88977 37.2778 2.88288C38.3123 3.80702 38.8916 5.14495 38.864 6.52426C38.8916 7.91734 38.3123 9.25526 37.2778 10.1932C36.2433 11.1726 34.9743 11.6691 33.4709 11.6691H29.7881ZM29.7881 3.50357V9.54491H33.5123C34.3398 9.57251 35.1398 9.24154 35.7053 8.64836C36.8777 7.51736 36.8915 5.65529 35.7605 4.48288L35.7053 4.42771C35.1398 3.82081 34.3398 3.48978 33.5123 3.51736L29.7881 3.50357ZM43.9812 6.45529C45.6226 6.45529 46.9191 6.89668 47.8709 7.76561C48.8226 8.64836 49.2916 9.84836 49.2916 11.3794V18.6622H47.1674V17.0208H47.0708C46.1468 18.3726 44.933 19.0484 43.4019 19.0484C42.1053 19.0484 41.0019 18.6622 40.133 17.8898C39.2777 17.1726 38.795 16.1105 38.8226 14.9932C38.8226 13.7656 39.2915 12.8001 40.2157 12.0691C41.1398 11.3381 42.3812 10.9794 43.926 10.9794C45.2502 10.9794 46.326 11.2277 47.1812 11.6967V11.1864C47.1812 10.4277 46.8502 9.71044 46.2709 9.22774C45.6778 8.70356 44.9192 8.41391 44.1329 8.41391C42.8915 8.41391 41.9123 8.93809 41.1812 9.98636L39.2226 8.75876C40.2847 7.22771 41.8709 6.45529 43.9812 6.45529ZM41.1122 15.0484C41.1122 15.6277 41.3881 16.1656 41.8433 16.4967C42.3398 16.8829 42.9467 17.0898 43.5674 17.076C44.5054 17.076 45.4019 16.7036 46.064 16.0415C46.795 15.3519 47.1674 14.538 47.1674 13.6001C46.4777 13.0484 45.5123 12.7725 44.2709 12.7725C43.3743 12.7725 42.6157 12.9933 42.0088 13.4208C41.4157 13.8622 41.1122 14.4001 41.1122 15.0484ZM61.4846 6.8415L54.064 23.8898H51.7743L54.533 17.9312L49.6502 6.85529H52.064L55.5812 15.3519H55.6364L59.0708 6.85529L61.4846 6.8415Z" fill="#5F6368"/>
<path d="M20.8093 10.1519C20.8093 9.47611 20.7541 8.80021 20.6438 8.13818H11.2783V11.9588H16.6438C16.4231 13.1864 15.7059 14.2899 14.6576 14.9795V17.4623H17.8576C19.7334 15.7382 20.8093 13.1864 20.8093 10.1519Z" fill="#4285F4"/>
<path d="M11.2781 19.862C13.954 19.862 16.216 18.9793 17.8574 17.462L14.6575 14.9793C13.7609 15.5862 12.616 15.931 11.2781 15.931C8.68507 15.931 6.49193 14.1793 5.70573 11.8345H2.40918V14.4C4.09193 17.7379 7.52641 19.862 11.2781 19.862Z" fill="#34A853"/>
<path d="M5.70581 11.8347C5.29201 10.6071 5.29201 9.26916 5.70581 8.02776V5.47607H2.40926C1.7088 6.85672 1.34375 8.38311 1.34375 9.93126C1.34375 11.4794 1.7088 13.0057 2.40926 14.3864L5.70581 11.8347Z" fill="#FBBC04"/>
<path d="M11.2781 3.93115C12.6988 3.90356 14.0644 4.44149 15.085 5.4208L17.9126 2.59322C16.1195 0.896665 13.7471 -0.0274743 11.2781 0.000111966C7.52641 0.000111966 4.09193 2.12425 2.40918 5.47598L5.70573 8.0415C6.49193 5.68287 8.68507 3.93115 11.2781 3.93115Z" fill="#EA4335"/>
</g>
</svg>
