<svg width="39" height="28" viewBox="0 0 39 28" fill="none" xmlns="http://www.w3.org/2000/svg">
<mask id="mask0_5037_16434" style="mask-type:luminance" maskUnits="userSpaceOnUse" x="0" y="0" width="38" height="28">
<path d="M37.6664 0H0.333008V28H37.6664V0Z" fill="white"/>
</mask>
<g mask="url(#mask0_5037_16434)">
<path d="M36.2844 27.6149V27.6907H36.3486H36.3836C36.3861 27.6863 36.3875 27.6812 36.3875 27.6762C36.3875 27.671 36.3861 27.666 36.3836 27.6615H36.3486L36.2844 27.6149ZM36.3486 27.5682C36.3615 27.5628 36.3754 27.56 36.3894 27.56C36.4034 27.56 36.4173 27.5628 36.4303 27.5682C36.4349 27.5782 36.4374 27.5892 36.4374 27.6003C36.4374 27.6114 36.4349 27.6223 36.4303 27.6324C36.434 27.6406 36.4359 27.6496 36.4359 27.6587C36.4359 27.6677 36.434 27.6766 36.4303 27.6849C36.4096 27.6924 36.3868 27.6924 36.3661 27.6849L36.4536 27.784H36.3836L36.3019 27.6849V27.784H36.2436V27.5157L36.3486 27.5682ZM36.3486 27.9299C36.3772 27.9381 36.4075 27.9381 36.4361 27.9299C36.4645 27.9201 36.4904 27.9042 36.5119 27.8832C36.5307 27.8623 36.5465 27.8386 36.5586 27.8132C36.5817 27.7552 36.5817 27.6904 36.5586 27.6324C36.5465 27.6069 36.5307 27.5833 36.5119 27.5624C36.4906 27.5397 36.4648 27.5219 36.4361 27.5099H36.3486H36.2611C36.2324 27.5219 36.2066 27.5397 36.1852 27.5624C36.154 27.5951 36.1329 27.6363 36.1246 27.6809C36.1163 27.7254 36.1212 27.7714 36.1386 27.8132C36.1492 27.8394 36.1652 27.8632 36.1852 27.8832C36.2066 27.9058 36.2324 27.9237 36.2611 27.9357C36.29 27.9412 36.3197 27.9412 36.3486 27.9357V27.9299ZM36.3486 27.4107C36.4274 27.4109 36.5029 27.4424 36.5586 27.4982C36.587 27.5239 36.609 27.5558 36.6227 27.5915C36.6402 27.6269 36.6493 27.6658 36.6493 27.7053C36.6493 27.7448 36.6402 27.7837 36.6227 27.819C36.6103 27.8554 36.5881 27.8877 36.5586 27.9124C36.5324 27.9401 36.5006 27.962 36.4652 27.9765C36.4283 27.9919 36.3886 27.9999 36.3486 27.9999C36.3085 27.9999 36.2689 27.9919 36.2319 27.9765C36.1955 27.9607 36.1621 27.939 36.1327 27.9124C36.1079 27.8849 36.0883 27.8533 36.0744 27.819C36.0569 27.7837 36.0478 27.7448 36.0478 27.7053C36.0478 27.6658 36.0569 27.6269 36.0744 27.5915C36.1055 27.5213 36.1617 27.4651 36.2319 27.434C36.2703 27.4253 36.3102 27.4253 36.3486 27.434V27.4107ZM8.7978 26.384C8.80358 26.2079 8.86141 26.0375 8.96396 25.8941C9.06651 25.7508 9.20923 25.641 9.37408 25.5787C9.53893 25.5164 9.71856 25.5042 9.89024 25.5438C10.062 25.5834 10.2182 25.6729 10.3391 25.8012C10.46 25.9294 10.5403 26.0906 10.5697 26.2643C10.5992 26.438 10.5765 26.6166 10.5047 26.7775C10.4327 26.9384 10.3149 27.0745 10.1658 27.1685C10.0167 27.2625 9.84308 27.3102 9.66694 27.3057C9.54444 27.3076 9.4229 27.2841 9.30994 27.2366C9.19698 27.1891 9.09513 27.1189 9.01069 27.0301C8.92625 26.9412 8.86124 26.8359 8.8195 26.7207C8.77785 26.6055 8.76053 26.4829 8.76858 26.3607L8.7978 26.384ZM11.1602 26.3607V24.8849H10.5186V25.2465C10.4095 25.1042 10.2676 24.9902 10.1052 24.914C9.94283 24.8379 9.7645 24.8019 9.5853 24.809C9.1737 24.809 8.77908 24.9725 8.48807 25.2635C8.19707 25.5545 8.03359 25.9492 8.03359 26.3607C8.03359 26.7722 8.19707 27.1669 8.48807 27.4579C8.77908 27.7489 9.1737 27.9124 9.5853 27.9124C9.76389 27.9192 9.94151 27.8837 10.1038 27.8086C10.2661 27.7336 10.4082 27.6212 10.5186 27.4807V27.8365H11.1602V26.3607ZM32.8602 26.3607C32.8705 26.1868 32.9314 26.0197 33.0355 25.88C33.1396 25.7403 33.2823 25.6341 33.446 25.5745C33.6097 25.5149 33.7873 25.5046 33.9568 25.5447C34.1263 25.5848 34.2804 25.6737 34.4 25.8004C34.5196 25.927 34.5996 26.0859 34.63 26.2575C34.6604 26.429 34.64 26.6058 34.5711 26.7658C34.5023 26.9258 34.3881 27.0623 34.2427 27.1582C34.0973 27.2541 33.927 27.3054 33.7527 27.3057C33.6307 27.3067 33.5098 27.2827 33.3975 27.2348C33.2854 27.187 33.1841 27.1166 33.1004 27.0279C33.0166 26.9391 32.952 26.8341 32.9107 26.7193C32.8694 26.6045 32.8522 26.4825 32.8602 26.3607ZM35.2519 26.3607V23.7007H34.6161V25.2465C34.5089 25.1036 34.3683 24.9889 34.2067 24.9127C34.045 24.8364 33.8672 24.8008 33.6886 24.809C33.2771 24.809 32.8823 24.9725 32.5914 25.2635C32.3004 25.5545 32.1369 25.9492 32.1369 26.3607C32.1369 26.7722 32.3004 27.1669 32.5914 27.4579C32.8823 27.7489 33.2771 27.9124 33.6886 27.9124C33.8665 27.9202 34.0436 27.8851 34.2051 27.8099C34.3666 27.7348 34.5076 27.6219 34.6161 27.4807V27.8365H35.2636L35.2519 26.3607ZM19.1402 25.3865C19.2365 25.3842 19.3323 25.401 19.422 25.4358C19.5117 25.4707 19.5936 25.523 19.6631 25.5897C19.7325 25.6564 19.788 25.7362 19.8264 25.8245C19.8649 25.9128 19.8855 26.0078 19.8869 26.104H18.3586C18.3692 25.9059 18.4569 25.7199 18.603 25.5858C18.7492 25.4517 18.942 25.3802 19.1402 25.3865ZM19.1402 24.8032C18.7287 24.8086 18.3362 24.9773 18.049 25.2721C17.7619 25.567 17.6036 25.9638 17.609 26.3753C17.6144 26.7868 17.7831 27.1793 18.0779 27.4665C18.3728 27.7537 18.7696 27.912 19.1811 27.9065C19.6209 27.9226 20.0512 27.775 20.3886 27.4924L20.0736 27.014C19.8305 27.2103 19.5285 27.3192 19.2161 27.3232C19.004 27.3412 18.7932 27.2758 18.6286 27.1406C18.4641 27.0055 18.3588 26.8115 18.3352 26.5999H20.5286C20.5286 26.524 20.5286 26.4424 20.5286 26.3549C20.5472 26.1587 20.5248 25.9609 20.4627 25.7739C20.4006 25.5869 20.3002 25.415 20.1679 25.2689C20.0357 25.1229 19.8743 25.0061 19.6944 24.9259C19.5145 24.8457 19.3198 24.804 19.1227 24.8032H19.1402ZM26.8811 26.3549C26.8913 26.181 26.9523 26.0138 27.0563 25.8741C27.1605 25.7344 27.3032 25.6282 27.4669 25.5686C27.6306 25.5091 27.8081 25.4987 27.9777 25.5389C28.1472 25.579 28.3013 25.6679 28.4209 25.7946C28.5405 25.9213 28.6205 26.0802 28.6508 26.2517C28.6812 26.4232 28.6607 26.5999 28.592 26.7599C28.5231 26.92 28.409 27.0564 28.2636 27.1524C28.1181 27.2483 27.9478 27.2996 27.7736 27.2999C27.6516 27.301 27.5307 27.2768 27.4184 27.229C27.3062 27.1812 27.205 27.1107 27.1212 27.022C27.0374 26.9334 26.9729 26.8283 26.9316 26.7135C26.8903 26.5987 26.873 26.4766 26.8811 26.3549ZM29.2669 26.3549V24.8849H28.6253V25.2465C28.5168 25.1035 28.3751 24.9889 28.2126 24.9126C28.05 24.8364 27.8713 24.8009 27.6919 24.809C27.2804 24.809 26.8857 24.9725 26.5947 25.2635C26.3038 25.5545 26.1403 25.9492 26.1403 26.3607C26.1403 26.7722 26.3038 27.1669 26.5947 27.4579C26.8857 27.7489 27.2804 27.9124 27.6919 27.9124C27.8707 27.9202 28.0487 27.8851 28.2111 27.8099C28.3735 27.7349 28.5155 27.622 28.6253 27.4807V27.8365H29.2669V26.3607V26.3549ZM23.2528 26.3549C23.2434 26.5639 23.2781 26.7725 23.3545 26.9673C23.431 27.1621 23.5475 27.3386 23.6965 27.4855C23.8456 27.6323 24.0239 27.7462 24.2197 27.8197C24.4156 27.8932 24.6247 27.9248 24.8336 27.9124C25.2197 27.9317 25.5989 27.8047 25.8953 27.5565L25.5861 27.0374C25.3636 27.209 25.0912 27.3032 24.8102 27.3057C24.5596 27.3057 24.3193 27.2061 24.1421 27.0289C23.9648 26.8517 23.8653 26.6114 23.8653 26.3607C23.8653 26.1101 23.9648 25.8697 24.1421 25.6924C24.3193 25.5153 24.5596 25.4157 24.8102 25.4157C25.0901 25.419 25.3617 25.5109 25.5861 25.6782L25.8953 25.159C25.5968 24.915 25.2186 24.7903 24.8336 24.809C24.6257 24.7975 24.4177 24.8295 24.2229 24.9031C24.0282 24.9767 23.8509 25.0902 23.7026 25.2363C23.5543 25.3823 23.4382 25.5579 23.3617 25.7515C23.2853 25.9451 23.2502 26.1527 23.2586 26.3607L23.2528 26.3549ZM31.5361 24.809C31.3799 24.8046 31.2254 24.8424 31.0889 24.9183C30.9524 24.9943 30.8389 25.1057 30.7603 25.2407V24.8849H30.1477V27.8365H30.7894V26.1799C30.7894 25.6957 30.9994 25.4215 31.4194 25.4215C31.5572 25.4208 31.6938 25.4465 31.8219 25.4974L32.0144 24.914C31.8689 24.8597 31.7147 24.8321 31.5594 24.8324L31.5361 24.809ZM14.3336 25.1182C13.981 24.9086 13.577 24.8016 13.1669 24.809C12.4202 24.809 11.9361 25.1707 11.9361 25.754C11.9361 26.2382 12.2919 26.5357 12.9569 26.629L13.2602 26.6699C13.6103 26.7165 13.7794 26.8099 13.7794 26.979C13.7794 27.1482 13.5402 27.3349 13.1027 27.3349C12.7504 27.3461 12.4048 27.2371 12.1227 27.0257L11.8194 27.5274C12.1925 27.7904 12.6407 27.9254 13.0969 27.9124C13.9486 27.9124 14.4444 27.5099 14.4444 26.9499C14.4444 26.3899 14.0536 26.1565 13.4119 26.0632L13.1086 26.0224C12.8344 25.9874 12.6127 25.929 12.6127 25.7307C12.6127 25.5324 12.8227 25.3865 13.1961 25.3865C13.5196 25.3909 13.8367 25.4772 14.1177 25.6374L14.3919 25.1182H14.3336ZM22.6227 24.809C22.4658 24.8048 22.3106 24.8426 22.1731 24.9185C22.0358 24.9944 21.9211 25.1056 21.8411 25.2407V24.8849H21.2169V27.8365H21.8586V26.1799C21.8586 25.6957 22.0686 25.4215 22.4886 25.4215C22.6265 25.4201 22.7632 25.446 22.8911 25.4974L23.0894 24.914C22.9438 24.8597 22.7898 24.8321 22.6344 24.8324L22.6227 24.809ZM17.1511 24.9082H16.0836V23.9865H15.4536V24.8849H14.8702V25.4682H15.4536V26.8332C15.4536 27.5215 15.7219 27.9299 16.4802 27.9299C16.7645 27.9303 17.0433 27.8516 17.2852 27.7024L17.0986 27.119C16.9218 27.2245 16.721 27.2827 16.5152 27.2882C16.1944 27.2882 16.0894 27.0899 16.0894 26.7924V25.474H17.1394L17.1511 24.9082ZM7.54942 27.8365V25.9874C7.55878 25.8317 7.53501 25.6758 7.47969 25.53C7.42437 25.3843 7.33876 25.2519 7.2285 25.1416C7.11824 25.0314 6.98584 24.9457 6.84006 24.8904C6.69427 24.8351 6.53841 24.8113 6.38276 24.8207C6.17888 24.8097 5.97568 24.8524 5.79347 24.9445C5.61127 25.0366 5.45642 25.175 5.34442 25.3457C5.24409 25.1788 5.10071 25.0421 4.9293 24.9497C4.7579 24.8573 4.56481 24.8127 4.37026 24.8207C4.20071 24.8121 4.03185 24.8479 3.88042 24.9246C3.72898 25.0014 3.60023 25.1163 3.50692 25.2582V24.8965H2.87109V27.8482H3.51859V26.1974C3.50459 26.0964 3.51317 25.9937 3.54371 25.8965C3.57424 25.7993 3.62598 25.71 3.69519 25.6353C3.76438 25.5605 3.84933 25.502 3.94387 25.4641C4.03842 25.4261 4.14022 25.4096 4.24192 25.4157C4.66776 25.4157 4.88359 25.6957 4.88359 26.1915V27.8365H5.53109V26.1974C5.51816 26.0966 5.5275 25.9943 5.55843 25.8975C5.58936 25.8009 5.64114 25.712 5.71012 25.6375C5.77909 25.5629 5.86358 25.5045 5.95764 25.4662C6.05168 25.4278 6.15299 25.4106 6.25442 25.4157C6.69192 25.4157 6.90192 25.6899 6.90192 26.1915V27.8365H7.54942Z" fill="#231F20"/>
<path d="M36.6462 18.0133V17.5815H36.5354L36.407 17.879L36.2787 17.5815H36.162V18.0133H36.2437V17.6924L36.3662 17.9724H36.4479L36.5704 17.6865V18.0133H36.6462ZM35.9345 18.0133V17.6574H36.0804V17.5815H35.7129V17.6574H35.8529V18.0133H35.9345Z" fill="#F79410"/>
<path d="M23.8648 19.8681H14.1348V2.36816H23.8648V19.8681Z" fill="#FF5F00"/>
<path d="M14.7534 11.1242C14.7503 9.43977 15.1311 7.77686 15.867 6.26171C16.6028 4.74655 17.6743 3.41903 19.0001 2.38003C17.3587 1.09149 15.388 0.290597 13.3131 0.0688511C11.2382 -0.152894 9.14272 0.213449 7.26612 1.12603C5.38952 2.03861 3.80743 3.46063 2.7006 5.22963C1.59378 6.99864 1.00684 9.0433 1.00684 11.13C1.00684 13.2168 1.59378 15.2614 2.7006 17.0304C3.80743 18.7995 5.38952 20.2214 7.26612 21.1341C9.14272 22.0466 11.2382 22.413 13.3131 22.1912C15.388 21.9695 17.3587 21.1686 19.0001 19.88C17.6735 18.8404 16.6016 17.512 15.8657 15.9957C15.1298 14.4795 14.7495 12.8154 14.7534 11.13" fill="#EB001B"/>
<path d="M36.9958 11.124C36.9973 13.2117 36.4111 15.2576 35.3041 17.0275C34.1973 18.7976 32.6143 20.2202 30.7366 21.1325C28.8589 22.0449 26.7623 22.4102 24.6866 22.1866C22.611 21.963 20.6403 21.1596 19 19.8682C20.3258 18.8274 21.3978 17.4989 22.1349 15.9831C22.872 14.4673 23.255 12.8037 23.255 11.1182C23.255 9.43263 22.872 7.76915 22.1349 6.25333C21.3978 4.73751 20.3258 3.40902 19 2.36821C20.6407 1.07655 22.6119 0.273024 24.6881 0.0496463C26.7642 -0.173732 28.8613 0.192065 30.7393 1.10515C32.6172 2.01823 34.2 3.4417 35.3065 5.21256C36.413 6.98341 36.9984 9.03005 36.9958 11.1182" fill="#F79E1B"/>
</g>
</svg>
