<svg width="85" height="24" viewBox="0 0 85 24" fill="none" xmlns="http://www.w3.org/2000/svg">
<g clip-path="url(#clip0_5037_16474)">
<mask id="mask0_5037_16474" style="mask-type:luminance" maskUnits="userSpaceOnUse" x="0" y="0" width="85" height="24">
<path d="M84.2559 0.0649414H0.213867V23.9348H84.2559V0.0649414Z" fill="white"/>
</mask>
<g mask="url(#mask0_5037_16474)">
<path d="M63.8744 6.9668H59.43C59.1685 6.9668 58.9071 7.22824 58.7764 7.48967L56.9463 18.993C56.9463 19.2544 57.077 19.3851 57.3385 19.3851H59.6914C59.9529 19.3851 60.0836 19.2544 60.0836 18.993L60.6064 15.725C60.6064 15.4636 60.8679 15.2021 61.2601 15.2021H62.698C65.7045 15.2021 67.4038 13.7642 67.796 10.8884C68.0575 9.7119 67.796 8.66618 67.2731 8.01255C66.4888 7.35896 65.3124 6.9668 63.8744 6.9668ZM64.3973 11.2805C64.1359 12.8492 62.9594 12.8492 61.783 12.8492H60.9986L61.5215 9.84263C61.5215 9.7119 61.6522 9.58118 61.9137 9.58118H62.1751C62.9594 9.58118 63.7438 9.58118 64.1359 10.1041C64.3973 10.2348 64.3973 10.6269 64.3973 11.2805Z" fill="#139AD6"/>
<path d="M31.848 6.9668H27.4036C27.1422 6.9668 26.8807 7.22824 26.75 7.48967L24.9199 18.993C24.9199 19.2544 25.0506 19.3851 25.3121 19.3851H27.4036C27.6651 19.3851 27.9265 19.1237 28.0572 18.8623L28.5801 15.725C28.5801 15.4636 28.8415 15.2021 29.2337 15.2021H30.6716C33.6781 15.2021 35.3775 13.7642 35.7696 10.8884C36.0311 9.7119 35.7696 8.66618 35.2467 8.01255C34.4625 7.35896 33.4167 6.9668 31.848 6.9668ZM32.3709 11.2805C32.1095 12.8492 30.933 12.8492 29.7566 12.8492H29.103L29.6259 9.84263C29.6259 9.7119 29.7566 9.58118 30.018 9.58118H30.2794C31.0638 9.58118 31.848 9.58118 32.2402 10.1041C32.3709 10.2348 32.5017 10.6269 32.3709 11.2805ZM45.3122 11.1498H43.2207C43.09 11.1498 42.8285 11.2805 42.8285 11.4113L42.6978 12.0649L42.567 11.8034C42.0441 11.1498 41.1292 10.8884 40.0834 10.8884C37.7305 10.8884 35.6389 12.7184 35.2467 15.2021C34.9854 16.5093 35.3775 17.6858 36.0311 18.4701C36.6847 19.2544 37.5997 19.5158 38.7762 19.5158C40.737 19.5158 41.7828 18.3394 41.7828 18.3394L41.6521 18.993C41.6521 19.2544 41.7828 19.3851 42.0442 19.3851H44.005C44.2664 19.3851 44.5278 19.1237 44.6586 18.8623L45.835 11.542C45.7043 11.4113 45.4429 11.1498 45.3122 11.1498ZM42.3056 15.3329C42.0442 16.5093 41.1291 17.4244 39.822 17.4244C39.1683 17.4244 38.6455 17.1629 38.3841 16.9015C38.1226 16.5093 37.9919 15.9864 37.9919 15.3329C38.1226 14.1563 39.1684 13.2413 40.3448 13.2413C40.9984 13.2413 41.3906 13.5028 41.7828 13.7642C42.1749 14.1563 42.3056 14.81 42.3056 15.3329Z" fill="#263B80"/>
<path d="M77.2082 11.15H75.1164C74.9856 11.15 74.7241 11.2808 74.7241 11.4115L74.5935 12.0651L74.4627 11.8037C73.9398 11.15 73.0248 10.8887 71.979 10.8887C69.6261 10.8887 67.5346 12.7187 67.1424 15.2024C66.881 16.5095 67.2732 17.6861 67.9267 18.4703C68.5803 19.2547 69.4954 19.5161 70.6719 19.5161C72.6327 19.5161 73.6784 18.3396 73.6784 18.3396L73.5477 18.9932C73.5477 19.2547 73.6784 19.3854 73.9398 19.3854H75.9009C76.1619 19.3854 76.4237 19.124 76.5542 18.8625L77.7309 11.5422C77.5997 11.4115 77.4692 11.15 77.2082 11.15ZM74.2013 15.3331C73.9398 16.5095 73.0248 17.4246 71.7176 17.4246C71.064 17.4246 70.5411 17.1632 70.2797 16.9017C70.0182 16.5095 69.8875 15.9867 69.8875 15.3331C70.0182 14.1566 71.064 13.2416 72.2405 13.2416C72.894 13.2416 73.2862 13.503 73.6784 13.7645C74.2013 14.1566 74.332 14.8102 74.2013 15.3331Z" fill="#139AD6"/>
<path d="M56.6845 11.1504H54.4623C54.2008 11.1504 54.0701 11.2811 53.9394 11.4118L51.0636 15.8563L49.7564 11.6733C49.6257 11.4118 49.4949 11.2811 49.1028 11.2811H47.0112C46.7498 11.2811 46.6191 11.5426 46.6191 11.8039L48.972 18.7321L46.7498 21.8694C46.6191 22.1308 46.7498 22.5229 47.0112 22.5229H49.1028C49.3642 22.5229 49.4949 22.3922 49.6257 22.2615L56.8152 11.9347C57.2073 11.5426 56.946 11.1504 56.6845 11.1504Z" fill="#263B80"/>
<path d="M79.6913 7.35911L77.8613 19.1238C77.8613 19.3853 77.9918 19.516 78.2536 19.516H80.0836C80.3453 19.516 80.6063 19.2545 80.7376 18.9932L82.5676 7.48983C82.5676 7.22838 82.4363 7.09767 82.1753 7.09767H80.0836C79.9531 6.96695 79.8218 7.09767 79.6913 7.35911Z" fill="#139AD6"/>
<path d="M15.2466 3.04568C14.3315 1.99993 12.6322 1.47705 10.2793 1.47705H3.74329C3.35113 1.47705 2.95898 1.86921 2.82825 2.26136L0.213867 19.3856C0.213867 19.7778 0.475306 20.0392 0.736745 20.0392H4.78904L5.8348 13.6339V13.8954C5.96552 13.5032 6.35768 13.1111 6.74984 13.1111H8.71064C12.5015 13.1111 15.3773 11.5425 16.2923 7.2287V6.83654C16.1616 6.83654 16.1616 6.83654 16.2923 6.83654C16.423 5.13719 16.1616 4.09144 15.2466 3.04568Z" fill="#263B80"/>
<path d="M16.1612 6.83643V7.22859C15.2461 11.673 12.3703 13.1109 8.57947 13.1109H6.61871C6.22656 13.1109 5.8344 13.5031 5.70368 13.8953L4.39648 21.8691C4.39648 22.1306 4.5272 22.392 4.91936 22.392H8.3181C8.7102 22.392 9.10237 22.1306 9.10237 21.7384V21.6077L9.756 17.5554V17.294C9.756 16.9018 10.1481 16.6404 10.5403 16.6404H11.0632C14.3311 16.6404 16.9456 15.3332 17.5991 11.4116C17.8606 9.84296 17.7298 8.40506 16.9456 7.49002C16.8148 7.22859 16.5534 6.96714 16.1612 6.83643Z" fill="#139AD6"/>
<path d="M15.2468 6.44441C15.1161 6.44441 14.9853 6.31369 14.8546 6.31369C14.7239 6.31369 14.5932 6.31369 14.4624 6.18296C13.9395 6.05225 13.4167 6.05225 12.7631 6.05225H7.66504C7.53431 6.05225 7.40359 6.05225 7.27288 6.18296C7.01144 6.31369 6.88072 6.57512 6.88072 6.83657L5.83496 13.6339V13.8954C5.96569 13.5032 6.35784 13.1111 6.75 13.1111H8.71076C12.5016 13.1111 15.3774 11.5425 16.2925 7.22872C16.2925 7.098 16.2925 6.96728 16.4232 6.83657C16.1618 6.70584 16.0311 6.57512 15.7696 6.57512C15.3774 6.44441 15.3774 6.44441 15.2468 6.44441Z" fill="#232C65"/>
</g>
</g>
<defs>
<clipPath id="clip0_5037_16474">
<rect width="84.75" height="24" fill="white" transform="translate(0.0683594)"/>
</clipPath>
</defs>
</svg>
