<?xml version="1.0" encoding="utf-8"?>
<!-- Generator: Adobe Illustrator 23.1.0, SVG Export Plug-In . SVG Version: 6.00 Build 0)  -->
<svg version="1.1" id="Layer_1" xmlns="http://www.w3.org/2000/svg" xmlns:xlink="http://www.w3.org/1999/xlink" x="0px" y="0px"
	 viewBox="0 0 640.5 122.1" style="enable-background:new 0 0 640.5 122.1;" xml:space="preserve">
<style type="text/css">
	.st0{fill:#3E76BB;}
	.st1{fill:#23272A;}
	.st2{fill-rule:evenodd;clip-rule:evenodd;fill:#3E76BB;}
</style>
<g>
	<g>
		<path class="st0" d="M146.4,18.4c-0.1,0.6-0.2,1.2-0.2,1.9v19.8c0,4.6,3.7,8.4,8.4,8.4c4.6,0,8.4-3.7,8.4-8.4V20.3
			c0-0.7-0.1-1.3-0.2-1.9c9.7,1.8,18.3,6.9,24.5,14l10.3-14.8C186.5,6.8,171.3,0,154.6,0c-16.8,0-32,6.8-43,17.7l10.3,14.8
			C128.1,25.3,136.7,20.3,146.4,18.4z"/>
		<path class="st1" d="M203.6,24.7l-10.9,15.6c3.4,6.2,5.3,13.3,5.3,20.8c0,24-19.4,43.4-43.4,43.4c-24,0-43.4-19.4-43.4-43.4
			c0-7.5,1.9-14.6,5.3-20.8l-10.9-15.6c-7.6,10.2-12,22.8-12,36.4c0,33.7,27.3,61.1,61.1,61.1c33.7,0,61.1-27.3,61.1-61.1
			C215.6,47.4,211.1,34.8,203.6,24.7z"/>
	</g>
	<circle class="st2" cx="154.6" cy="61.1" r="8.4"/>
	<path class="st2" d="M194.5,61.6L194.5,61.6c0,4.6-3.7,8.4-8.4,8.4h-11.5c-4.6,0-8.4-3.7-8.4-8.4v0c0-4.6,3.7-8.4,8.4-8.4h11.5
		C190.8,53.2,194.5,57,194.5,61.6z"/>
	<g>
		<path class="st1" d="M0,1.9h82.7v15.9H51.1v102.6H31.7V17.8H0V1.9z"/>
		<path class="st1" d="M344.9,36h-23.3c-6.3-11.9-17.6-17.9-31.7-17.9c-23.5,0-40.6,16.7-40.6,42.8s17,42.9,40.6,42.9
			c21.5,0,34.9-13,37.8-32.9h-44.5V55.4h65.3v15.2c-3.6,27.4-26.8,50.8-58.6,50.8c-33.4,0-60.5-24.9-60.5-60.5
			c0-35.4,27.1-60.5,60.5-60.5C314.6,0.4,335.9,12.8,344.9,36z"/>
		<path class="st1" d="M476.7,36h-23.3c-6.3-11.9-17.6-17.9-31.7-17.9c-23.5,0-40.6,16.7-40.6,42.8s17,42.9,40.6,42.9
			c21.5,0,34.9-13,37.8-32.9H415V55.4h65.3v15.2c-3.6,27.4-26.8,50.8-58.6,50.8c-33.4,0-60.5-24.9-60.5-60.5
			c0-35.4,27.1-60.5,60.5-60.5C446.3,0.4,467.6,12.8,476.7,36z"/>
		<path class="st1" d="M518.8,1.9v102.8h40.1v15.7h-59.5V1.9H518.8z"/>
		<path class="st0" d="M620.6,17.6h-26.1v34.8h31v15.9h-31v36.3h46v15.9H575V1.8h45.6V17.6z"/>
	</g>
</g>
</svg>
