<svg width="219" height="42" viewBox="0 0 219 42" fill="none" xmlns="http://www.w3.org/2000/svg">
<path d="M47.8377 6.30259C47.786 6.50923 47.7343 6.71587 47.7343 6.97417V13.7934C47.7343 15.3948 49.0259 16.6863 50.6273 16.6863C52.2288 16.6863 53.5203 15.3948 53.5203 13.7934V6.97417C53.5203 6.76753 53.4687 6.50923 53.417 6.30259C56.7749 6.92252 59.7196 8.67896 61.8893 11.1587L65.4539 6.09594C61.631 2.32472 56.4133 0 50.6273 0C44.8413 0 39.6236 2.32472 35.8008 6.09594L39.3653 11.1587C41.5867 8.67896 44.5314 6.92252 47.8377 6.30259Z" fill="#5996E2"/>
<path d="M67.5719 8.42065L63.8007 13.7934C64.9889 15.9114 65.6088 18.3911 65.6088 20.9742C65.6088 29.2398 58.893 35.9557 50.6273 35.9557C42.3616 35.9557 35.6457 29.2398 35.6457 20.9742C35.6457 18.3911 36.3173 15.9114 37.4539 13.7934L33.786 8.42065C31.2029 11.9336 29.6531 16.273 29.6531 20.9742C29.6531 32.5978 39.0553 42 50.679 42C62.3026 42 71.7048 32.5978 71.7048 20.9742C71.7048 16.273 70.155 11.9336 67.5719 8.42065Z" fill="white"/>
<path d="M50.679 23.8672C52.2767 23.8672 53.5719 22.5719 53.5719 20.9742C53.5719 19.3764 52.2767 18.0812 50.679 18.0812C49.0812 18.0812 47.786 19.3764 47.786 20.9742C47.786 22.5719 49.0812 23.8672 50.679 23.8672Z" fill="#5996E2"/>
<path fill-rule="evenodd" clip-rule="evenodd" d="M64.4207 21.1291C64.4207 22.7306 63.1292 24.0221 61.5277 24.0221H57.5498C55.9483 24.0221 54.6568 22.7306 54.6568 21.1291C54.6568 19.5276 55.9483 18.2361 57.5498 18.2361H61.5277C63.1292 18.2878 64.4207 19.5793 64.4207 21.1291Z" fill="#5996E2"/>
<path d="M0 0.619934H28.465V6.09594H17.6162V41.4317H10.9004V6.09594H0V0.619934Z" fill="white"/>
<path d="M116.236 12.3468H108.177C106.007 8.21399 102.133 6.19925 97.2768 6.19925C89.1661 6.19925 83.2768 11.9336 83.2768 20.9225C83.2768 29.9114 89.1661 35.6974 97.2768 35.6974C104.664 35.6974 109.314 31.2546 110.295 24.3838H94.9521V19.0627H117.476V24.2804C116.236 33.7343 108.28 41.7933 97.2768 41.7933C85.7565 41.7933 76.4059 33.2177 76.4059 20.9225C76.4059 8.73062 85.7565 0.0516357 97.2768 0.0516357C105.801 0.0516357 113.137 4.33945 116.236 12.3468Z" fill="white"/>
<path d="M161.646 12.3468H153.587C151.417 8.21399 147.542 6.19925 142.686 6.19925C134.576 6.19925 128.686 11.9336 128.686 20.9225C128.686 29.9114 134.576 35.6974 142.686 35.6974C150.074 35.6974 154.723 31.2546 155.705 24.3838H140.362V19.0627H162.834V24.2804C161.594 33.7343 153.638 41.7933 142.635 41.7933C131.114 41.7933 121.764 33.2177 121.764 20.9225C121.764 8.73062 131.114 0.0516357 142.635 0.0516357C151.21 0.0516357 158.546 4.33945 161.646 12.3468Z" fill="white"/>
<path d="M176.162 0.619934V36.0074H189.956V41.4317H169.447V0.619934H176.162Z" fill="white"/>
<path d="M211.24 5.99259H202.199V17.9778H212.841V23.4538H202.199V35.9557H218.059V41.4317H195.535V0.568237H211.24V5.99259Z" fill="#5996E2"/>
</svg>
